<svg xmlns="http://www.w3.org/2000/svg" xmlns:xlink="http://www.w3.org/1999/xlink" height="512" width="512"><linearGradient id="A" gradientUnits="userSpaceOnUse" x1="256" x2="256" y1="598.193" y2="61.05"><stop offset=".002" stop-color="#ffc599"/><stop offset=".992" stop-color="#ffe8dc" stop-opacity="0"/></linearGradient><path d="M465.257 164.114c-14.86-17.312-24.645-38.356-29.218-60.708-3.878-18.954-12.095-35.4-24.96-48.267-58.773-58.773-192.264-20.572-298.16 85.325S-31.18 379.85 27.592 438.624c27.937 27.937 72.757 33.955 123.47 21.212 29.453-7.4 60.532-4.287 88.3 8.03 23.202 10.295 48.8 16.173 75.724 16.566 105.676 1.543 193.748-82.552 196.84-188.195 1.48-50.505-16.354-96.822-46.657-132.123z" fill="url(#A)"/><g fill="#00c"><circle cx="189.559" cy="170.272" opacity=".1" r="34.972"/><path d="M447.675 444.07l-30.6-244.14c-.57-4.5-4.4-7.9-8.95-7.9h-34.98v-52.074c0-36.48-29.677-66.156-66.155-66.156s-66.156 29.678-66.156 66.156v52.074h-34.98a9.01 9.01 0 0 0-8.94 7.9l-2.64 21.053a42.66 42.66 0 0 0-19.438-4.671c-23.677 0-42.94 19.263-42.94 42.94v32.307h-19.045c-4.978 0-9.013 4.035-9.013 9.013v144.614c0 4.978 4.035 9.013 9.013 9.013h325.88c5.42.002 9.62-4.748 8.94-10.128zm-196.84-304.114c0-30.965 25.19-56.156 56.156-56.156s56.155 25.19 56.155 56.156v52.074h-112.31zM141.898 259.252c0-18.163 14.776-32.94 32.94-32.94a32.73 32.73 0 0 1 18.088 5.431l-7.5 59.816h-43.528v-32.308z" opacity=".1"/></g><path d="M438.735 433.2h-263.5a9.01 9.01 0 0 1-8.94-10.13l30.6-244.14a9.01 9.01 0 0 1 8.94-7.9h202.27c4.55 0 8.38 3.4 8.95 7.9l30.6 244.14a9.01 9.01 0 0 1-8.94 10.13z" fill="#ff9d33"/><g fill="#ff8b00"><path d="M223.075 171.03c-3.8 12.8-14.77 22.53-28.25 24.57l2.1-16.67a9.01 9.01 0 0 1 8.94-7.9z"/><use xlink:href="#C"/></g><path d="M440.715 367.52h-267.45l5.28-42.1h256.9z" fill="#ffc599"/><g fill="#ff7300"><path d="M383.335 406.908h-132.5a5 5 0 1 1 0-10h132.5a5 5 0 1 1 0 10z"/><circle cx="245.835" cy="205.749" r="11.266"/><circle cx="368.146" cy="205.749" r="11.266"/></g><path d="M103.84 279.573v144.614c0 4.978 4.035 9.013 9.013 9.013H236.82c4.978 0 9.013-4.035 9.013-9.013V279.573c0-4.978-4.035-9.013-9.013-9.013H112.854c-4.978-.001-9.014 4.035-9.014 9.013z" fill="#fff"/><g fill="#ff2c2c"><use xlink:href="#C" y="-14"/><path d="M212.277 342.8H137.4a5 5 0 0 1-5-5v-25a5 5 0 0 1 5-5h74.878a5 5 0 0 1 5 5v25a5 5 0 0 1-5 5z"/></g><path d="M196.088 330.3h-42.5a5 5 0 1 1 0-10h42.5a5 5 0 1 1 0 10z" fill="#fff"/><circle cx="189.559" cy="149.272" fill="#ff4d4d" r="34.972"/><path d="M452.64 422.443l-30.607-244.14a14.04 14.04 0 0 0-13.904-12.271h-34.98v-47.077c0-36.48-29.677-66.156-66.156-66.156s-66.156 29.678-66.156 66.156v47.077h-15a39.72 39.72 0 0 0 3.698-16.762c0-22.04-17.93-39.972-39.972-39.972s-39.972 17.932-39.972 39.972 17.93 39.972 39.972 39.972c.343 0 .68-.017 1.022-.026l-1.087 8.674a42.73 42.73 0 0 0-14.656-2.578c-23.677 0-42.94 19.263-42.94 42.94v27.308h-19.045c-7.727 0-14.013 6.286-14.013 14.013v144.614c0 7.727 6.286 14.013 14.013 14.013h325.88a14.02 14.02 0 0 0 13.903-15.756zM250.835 118.956c0-30.965 25.19-56.156 56.156-56.156s56.156 25.19 56.156 56.156v47.077H326.84v-4.9c0-9.007-7.327-16.334-16.333-16.334s-16.333 7.327-16.333 16.334v4.9h-43.34zm66.005 47.077h-12.667v-4.9c0-3.492 2.84-6.334 6.333-6.334s6.333 2.842 6.333 6.334v4.9zM159.588 149.27c0-16.526 13.445-29.972 29.972-29.972s29.972 13.445 29.972 29.972-13.445 29.972-29.972 29.972-29.972-13.445-29.972-29.972zm-17.7 88.98c0-18.163 14.776-32.94 32.94-32.94a32.73 32.73 0 0 1 13.369 2.846l-4.037 32.205a5 5 0 0 0 4.339 5.583c2.74.34 5.24-1.6 5.583-4.34l3.413-27.222c6.32 6.006 10.273 14.48 10.273 23.866v27.308H141.9v-27.308zm299.846 188.6c-.448.507-1.434 1.357-3.01 1.357H250.242c.38-1.272.592-2.618.592-4.013V313.573a5 5 0 1 0-10 0v110.613a4.02 4.02 0 0 1-4.013 4.013H112.854a4.02 4.02 0 0 1-4.013-4.013V279.572a4.02 4.02 0 0 1 4.013-4.013H131.9v13.163a5 5 0 1 0 10 0V275.56h65.878v13.163a5 5 0 1 0 10 0V275.56h19.045a4.02 4.02 0 0 1 4.013 4.013 5 5 0 1 0 10 0c0-7.727-6.286-14.013-14.013-14.013h-19.045v-27.308c0-14.74-7.467-27.765-18.814-35.5l1.9-15.146a40.05 40.05 0 0 0 18.36-11.572h21.613v14.244c-6.53 2.115-11.266 8.248-11.266 15.47 0 8.97 7.297 16.267 16.266 16.267a16.29 16.29 0 0 0 16.267-16.267c0-7.224-4.738-13.356-11.267-15.47v-14.244h66.005v39.396l-6.047.79c-4.49.585-8.037 4.13-8.624 8.623l-2.505 19.208c-.398 3.057.665 6.184 2.845 8.363l30.835 30.837a9.97 9.97 0 0 0 14.142-.001l21.713-21.714a9.93 9.93 0 0 0 2.929-7.07c0-2.67-1.04-5.183-2.93-7.07l-30.835-30.836c-2.18-2.18-5.306-3.246-8.365-2.845l-3.16.412v-38.092h36.306v14.244c-6.53 2.115-11.267 8.247-11.267 15.47 0 8.97 7.297 16.267 16.267 16.267s16.267-7.297 16.267-16.267c0-7.224-4.738-13.356-11.267-15.47v-14.244h34.98a4.02 4.02 0 0 1 3.982 3.515l30.606 244.14c.2 1.562-.523 2.645-.97 3.153zM241.056 201.706c.606 2.08 2.504 3.607 4.78 3.607s4.173-1.528 4.78-3.607c.926 1.093 1.488 2.503 1.488 4.044 0 3.455-2.81 6.267-6.267 6.267s-6.266-2.812-6.266-6.267a6.23 6.23 0 0 1 1.487-4.044zm80.784 33.76a5 5 0 0 0 5-5v-6.258l4.453-.58 30.836 30.836-21.713 21.714-30.835-30.836 2.505-19.208 4.755-.62v4.953a5 5 0 0 0 4.999 5zm41.528-33.762c.606 2.08 2.504 3.607 4.78 3.607s4.173-1.528 4.78-3.607c.926 1.093 1.488 2.503 1.488 4.044 0 3.455-2.81 6.267-6.267 6.267s-6.267-2.812-6.267-6.267c0-1.54.562-2.95 1.488-4.044z" fill="#00c"/><g fill="#fff"><path d="M189.56 166.017a5 5 0 0 1-5-5v-23.49a5 5 0 1 1 10 0v23.49a5 5 0 0 1-5 5z"/><path d="M201.304 154.27h-23.49a5 5 0 1 1 0-10h23.49a5 5 0 1 1 0 10z"/></g><g fill="#ff6c6c"><use xlink:href="#D"/><use xlink:href="#D" x="118.702" y="-189.005"/></g><use xlink:href="#E" fill="#ff9d33"/><path d="M448.747 176.017c-1.28 0-2.56-.488-3.536-1.465a5 5 0 0 1 0-7.07l10-10a5 5 0 0 1 7.071 7.07l-10 10c-.976.976-2.255 1.465-3.535 1.465z" fill="#6c6cff"/><use xlink:href="#E" x="-353.542" y="262.663" fill="#ff9d33"/><defs ><path id="C" d="M365.664 272l-21.713 21.713a5 5 0 0 1-7.071 0l-30.835-30.835a5 5 0 0 1-1.422-4.182l2.505-19.208a5 5 0 0 1 4.311-4.311l19.208-2.505a5 5 0 0 1 4.182 1.422l30.835 30.835a5 5 0 0 1 0 7.071z"/><path id="D" d="M73.253 267.917c-1.28 0-2.56-.488-3.536-1.465a5 5 0 0 1 0-7.07l10-10a5 5 0 0 1 7.071 7.07l-10 10a4.98 4.98 0 0 1-3.535 1.465z"/><path id="E" d="M426.795 139.057c-1.28 0-2.56-.488-3.536-1.465l-6.464-6.464-6.464 6.464a5 5 0 0 1-7.071-7.07l10-10a5 5 0 0 1 7.071 0l10 10a5 5 0 0 1 0 7.07c-.977.976-2.256 1.465-3.536 1.465z"/></defs></svg>