<svg xmlns="http://www.w3.org/2000/svg" height="512" viewBox="0 0 60 60" width="512"><path d="M20 22a6 6 0 0 1-4.43 5.79c-.45-.174-.918-.26-1.4-.25L8.03 21.4A6 6 0 0 1 20 22z" fill="#dfc49c"/><path d="M13.9 27.25L8.03 21.4c.253-2.502 2.043-4.58 4.48-5.2 2.374.62 4.13 2.623 4.435 5.057s-.906 4.81-3.055 5.993z" fill="#ffe0b2"/><path d="M26.53 38.36l-5.66 4.24-17.6-17.48A3 3 0 0 1 5.39 20c1.044.053 2 .566 2.64 1.4l6.15 6.143c1.74 0 2.43.9 3.4 1.87z" fill="#dfc49c"/><path d="M24.6 39.8l-3.72 2.8h-.01L3.27 25.12a3 3 0 0 1-.16-4.07c1.02.072 1.96.578 2.58 1.4v.01l6.23 6.14c.93-.004 1.825.367 2.48 1.03l10.2 10.2z" fill="#ffe0b2"/><path d="M46.95 45c-.537-.005-1.06-.18-1.5-.5-.285-.214.22.272-6.46-6.42l-2.46 2.46L33 37c3.343-3.354 3.48-3.638 4.5-4.05a4.01 4.01 0 0 1 4.33.88l6.9 6.9A2.5 2.5 0 0 1 46.95 45z" fill="#dfc49c"/><path d="M45.46 44.5c-.285-.214.22.272-6.46-6.42a18.49 18.49 0 0 1-2.56 2.36L33 37c3.343-3.354 3.48-3.638 4.5-4.05 1.013.413.585.135 8.22 7.77a2.5 2.5 0 0 1-.26 3.77z" fill="#ffe0b2"/><path d="M36.54 40.54L32.1 45h-8.8l-2.4-2.4 5.66-4.24.44.44a3 3 0 0 0 4.24 0L33 37z" fill="#ef314c"/><path d="M51 15a7 7 0 1 1-14 0 7 7 0 1 1 14 0z" fill="#fdd834"/><path d="M48 15a7 7 0 0 1-5.5 6.84 6.84 6.84 0 0 1-2.31-.97c-2.363-1.54-3.574-4.344-3.072-7.12s2.62-4.978 5.372-5.59A6.99 6.99 0 0 1 48 15z" fill="#ffeb3a"/><path d="M59 47v2c-.003 1.103-.897 1.997-2 2H20.76L1.88 32.12c-.658-.658-.973-1.585-.85-2.508s.665-1.737 1.47-2.202a2.96 2.96 0 0 1 3.15.09c.423.274 13.9 13.783 17.63 17.5H57c1.103.003 1.997.897 2 2z" fill="#f57c00"/><path d="M56 47v2c-.003 1.103-.897 1.997-2 2H20.76L1.88 32.12c-.658-.658-.973-1.585-.85-2.508s.665-1.737 1.47-2.202c.648.39-.787-.9 17.78 17.6H54c1.103.003 1.997.897 2 2z" fill="#ff9801"/><path d="M20.76 51H8a3 3 0 1 1 0-6h6.76z" fill="#783e22"/><path d="M17.76 51H8a3 3 0 1 1 0-6h3.76z" fill="sienna"/><path d="M16 51v5.9c-.003 1.103-.897 1.997-2 2-.587.07-1.183.018-1.75-.15A1.99 1.99 0 0 1 11 56.9V51z" fill="#6d4122"/><path d="M13.5 51v5.9a1.99 1.99 0 0 1-1.25 1.85A1.99 1.99 0 0 1 11 56.9V51z" fill="#91562d"/><path d="M55 55c0 2.008-1.5 3.704-3.482 3.963s-3.865-1.002-4.377-2.944.498-3.962 2.358-4.718A4 4 0 0 1 55 55z" fill="#6d4122"/><path d="M49.5 58.7a3.99 3.99 0 0 1 0-7.4 3.99 3.99 0 0 1 0 7.4z" fill="#91562d"/><g fill="#000"><path d="M36 15a8 8 0 1 0 8-8 8.01 8.01 0 0 0-8 8zm8-6a6 6 0 1 1-6 6 6.01 6.01 0 0 1 6-6zm-1 18v2a1 1 0 1 0 2 0v-2a1 1 0 1 0-2 0zm2-24V1a1 1 0 1 0-2 0v2a1 1 0 1 0 2 0zm13 13a1 1 0 1 0 0-2h-2a1 1 0 1 0 0 2zm-28 0h2a1 1 0 1 0 0-2h-2a1 1 0 1 0 0 2zM54.606 4.394a1 1 0 0 0-1.414 0l-1.414 1.414a1 1 0 1 0 1.414 1.414l1.414-1.414a1 1 0 0 0 0-1.414zM33.394 25.606a1 1 0 0 0 1.414 0l1.414-1.414a1 1 0 0 0-1.414-1.414l-1.414 1.414a1 1 0 0 0 0 1.414zm19.798-2.828a1 1 0 0 0-1.414 1.414C53.316 25.73 53.373 25.9 53.9 25.9a1 1 0 0 0 .707-1.707zM34.808 4.394a1 1 0 0 0-1.414 1.414c1.537 1.538 1.594 1.707 2.12 1.707a1 1 0 0 0 .707-1.707zM57 44c-7.632 0-6.9.037-6.85-.073a3.48 3.48 0 0 0-.722-3.9l-6.9-6.9a5.01 5.01 0 0 0-7.074 0l-4.96 4.96a2 2 0 0 1-2.826 0l-10.1-10.1a6.99 6.99 0 1 0-10.146-8.4 4.09 4.09 0 0 0-4.868.583 4 4 0 0 0 0 5.654l.367.367C1.55 26.557.48 27.628.12 28.998s.036 2.83 1.045 3.826L12.346 44H8a4 4 0 1 0 0 8h2v5a3 3 0 0 0 3 3h1a3 3 0 0 0 3-3v-5h30.026a4.99 4.99 0 1 0 7.948 0H57a3 3 0 0 0 3-3v-2a3 3 0 0 0-3-3zm-20.123-9.453a3.01 3.01 0 0 1 4.246 0l6.9 6.9A1.5 1.5 0 0 1 46.918 44a1.68 1.68 0 0 1-1.1-.506l-6.1-6.12A1 1 0 0 0 39 37.08c-.553 0-.625.2-2.46 2.047l-2.122-2.122zM39 39.495L43.5 44h-9zm-7.083.012l1.088-1.088 2.123 2.123L31.675 44h-7.98l-1.3-1.3 4.06-3.04a3.99 3.99 0 0 0 5.464-.153zM14 17a4.99 4.99 0 0 1 1.529 9.743c-.293-.087-.595-.143-.9-.168l-5.52-5.5A4.97 4.97 0 0 1 14 17zM3.97 21.593a2.04 2.04 0 0 1 2.839 0l.437.428c.08.1-.133-.112 6.227 6.226a.95.95 0 0 0 .746.284c1.275.046 1.68.6 2.512 1.444l-.288.193a1 1 0 1 0 1.112 1.662l.618-.413 4.012 4a1 1 0 0 0 1.389 1.389l1.432 1.433-4.04 3.025-14.14-14.1a4.51 4.51 0 0 0-.47-.38l-2.38-2.38a2 2 0 0 1-.006-2.822zM6 48a2 2 0 0 1 2-2h6.346l4 4H8a2 2 0 0 1-2-2zm9 9a1 1 0 0 1-1 1h-1a1 1 0 0 1-1-1v-5h3zm39-2a3 3 0 1 1-6 0 3 3 0 1 1 6 0zm4-6a1 1 0 0 1-1 1H21.174L2.587 31.413a2 2 0 0 1 0-2.826c.794-.746 2.032-.746 2.826 0l17.12 17.12a1.01 1.01 0 0 0 .707.294H57a1 1 0 0 1 1 1z"/><circle cx="51" cy="55" r="1"/></g></svg>