<svg id="Capa_1" enable-background="new 0 0 512 512" height="512" viewBox="0 0 512 512" width="512" xmlns="http://www.w3.org/2000/svg"><g><g><g><g><g><g><path d="m15.002 512c-3.916.001-7.75-1.534-10.608-4.394-4.018-4.018-5.42-9.96-3.624-15.35l35.241-105.724c-23.581-39.624-36.011-84.598-36.011-130.532 0-68.381 26.629-132.668 74.981-181.02s112.639-74.98 181.019-74.98 132.667 26.629 181.02 74.98c48.351 48.352 74.98 112.639 74.98 181.02 0 68.38-26.629 132.667-74.98 181.02-48.353 48.351-112.64 74.98-181.02 74.98-45.933 0-90.907-12.43-130.533-36.011l-105.724 35.242c-1.553.517-3.154.769-4.741.769z" fill="#ffef4a"/></g></g></g></g></g><g><path d="m256 0v512c68.38 0 132.667-26.629 181.02-74.98 48.351-48.353 74.98-112.64 74.98-181.02 0-68.381-26.629-132.668-74.98-181.02-48.353-48.351-112.64-74.98-181.02-74.98z" fill="#ffb454"/></g><g><g><path d="m356 231c-24.813 0-45-20.187-45-45s20.187-45 45-45 45 20.187 45 45-20.186 45-45 45z" fill="#dce6f5"/></g><g><path d="m156 231c-24.813 0-45-20.187-45-45s20.187-45 45-45 45 20.187 45 45-20.186 45-45 45z" fill="#e9f7ff"/></g><g><path d="m256 421c-35.841 0-65-33.645-65-75s29.159-75 65-75 65 33.645 65 75-29.159 75-65 75z" fill="#ff4a4a"/></g></g><circle cx="356" cy="186" fill="#08475e" r="15"/><circle cx="156" cy="186" fill="#0a617d" r="15"/><path d="m256 271v150c35.841 0 65-33.645 65-75s-29.159-75-65-75z" fill="#c30047"/></g></svg>